<svg xmlns="http://www.w3.org/2000/svg" xmlns:xlink="http://www.w3.org/1999/xlink" width="512" zoomAndPan="magnify" viewBox="0 0 384 383.999986" height="512" preserveAspectRatio="xMidYMid meet" version="1.0"><defs><clipPath id="e1f7f3079b"><path d="M 5.683594 5.683594 L 378.316406 5.683594 L 378.316406 378.316406 L 5.683594 378.316406 Z M 5.683594 5.683594 " clip-rule="nonzero"/></clipPath><clipPath id="dc1a11db07"><path d="M 68.683594 5.683594 L 315.316406 5.683594 C 350.109375 5.683594 378.316406 33.890625 378.316406 68.683594 L 378.316406 315.316406 C 378.316406 350.109375 350.109375 378.316406 315.316406 378.316406 L 68.683594 378.316406 C 33.890625 378.316406 5.683594 350.109375 5.683594 315.316406 L 5.683594 68.683594 C 5.683594 33.890625 33.890625 5.683594 68.683594 5.683594 Z M 68.683594 5.683594 " clip-rule="nonzero"/></clipPath><clipPath id="907cde2ef9"><path d="M 0.683594 0.683594 L 373.316406 0.683594 L 373.316406 373.316406 L 0.683594 373.316406 Z M 0.683594 0.683594 " clip-rule="nonzero"/></clipPath><clipPath id="19d740ad5b"><path d="M 63.683594 0.683594 L 310.316406 0.683594 C 345.109375 0.683594 373.316406 28.890625 373.316406 63.683594 L 373.316406 310.316406 C 373.316406 345.109375 345.109375 373.316406 310.316406 373.316406 L 63.683594 373.316406 C 28.890625 373.316406 0.683594 345.109375 0.683594 310.316406 L 0.683594 63.683594 C 0.683594 28.890625 28.890625 0.683594 63.683594 0.683594 Z M 63.683594 0.683594 " clip-rule="nonzero"/></clipPath><clipPath id="9889cf22fb"><rect x="0" width="374" y="0" height="374"/></clipPath><clipPath id="1aa03bf101"><path d="M 107 109 L 275 109 L 275 277 L 107 277 Z M 107 109 " clip-rule="nonzero"/></clipPath><clipPath id="0add2acd9a"><path d="M 49.867188 191.867188 L 191.996094 49.742188 L 334.121094 191.867188 L 191.996094 333.996094 Z M 49.867188 191.867188 " clip-rule="nonzero"/></clipPath><clipPath id="1752a5d1f0"><path d="M 49.867188 191.867188 L 191.996094 49.742188 L 334.121094 191.867188 L 191.996094 333.996094 Z M 49.867188 191.867188 " clip-rule="nonzero"/></clipPath></defs><g clip-path="url(#e1f7f3079b)"><g clip-path="url(#dc1a11db07)"><g transform="matrix(1, 0, 0, 1, 5, 5)"><g clip-path="url(#9889cf22fb)"><g clip-path="url(#907cde2ef9)"><g clip-path="url(#19d740ad5b)"><path fill="#533afd" d="M 0.683594 0.683594 L 373.316406 0.683594 L 373.316406 373.316406 L 0.683594 373.316406 Z M 0.683594 0.683594 " fill-opacity="1" fill-rule="nonzero"/></g></g></g></g></g></g><g clip-path="url(#1aa03bf101)"><g clip-path="url(#0add2acd9a)"><g clip-path="url(#1752a5d1f0)"><path fill="#ffffff" d="M 274.628906 132.746094 C 237.636719 200.316406 258.347656 236.640625 273.984375 252.273438 L 249.625 276.632812 C 237.042969 264.050781 215.460938 235.101562 220.207031 188.148438 L 133.222656 275.132812 L 108.867188 250.773438 L 195.847656 163.789062 C 148.894531 168.535156 119.949219 146.953125 107.363281 134.371094 L 131.722656 110.011719 C 147.359375 125.652344 183.683594 146.363281 251.246094 109.371094 Z M 274.628906 132.746094 " fill-opacity="1" fill-rule="nonzero"/></g></g></g></svg>